<?xml version="1.0" standalone="no"?>
<!DOCTYPE svg PUBLIC "-//W3C//DTD SVG 20010904//EN"
 "http://www.w3.org/TR/2001/REC-SVG-20010904/DTD/svg10.dtd">
<svg version="1.0" xmlns="http://www.w3.org/2000/svg"
 width="276.000000pt" height="276.000000pt" viewBox="0 0 276.000000 276.000000"
 preserveAspectRatio="xMidYMid meet">
<metadata>
Created by potrace 1.11, written by Peter Selinger 2001-2013
</metadata>
<g transform="translate(0.000000,276.000000) scale(0.100000,-0.100000)"
fill="#000000" stroke="none">
<path d="M1320 2752 c-8 -3 -43 -18 -78 -33 l-62 -28 34 -48 c47 -67 82 -139
100 -210 22 -83 21 -86 -11 -69 -27 14 -93 33 -143 43 -168 32 -356 -45 -464
-190 -80 -107 -111 -207 -111 -357 0 -138 6 -175 50 -297 51 -144 130 -269
228 -364 20 -20 37 -38 37 -40 0 -2 -125 -4 -278 -4 l-278 -1 -57 -27 c-171
-84 -218 -287 -101 -443 19 -26 21 -34 10 -43 -7 -6 -26 -39 -42 -74 -25 -54
-29 -74 -29 -157 0 -86 3 -101 31 -161 55 -116 142 -191 258 -224 54 -16 152
-17 1120 -17 584 0 1072 1 1086 1 l25 1 -2 102 c0 57 -2 108 -2 114 -1 8 -309
11 -1075 11 l-1074 0 -45 22 c-122 59 -129 228 -12 296 l46 28 1080 0 c783 0
1079 3 1080 11 3 38 1 207 -3 211 -2 3 -510 5 -1128 5 -1027 0 -1125 2 -1142
17 -32 29 -21 75 22 91 14 4 524 8 1134 8 910 -1 1109 1 1114 12 8 21 9 185 1
202 -6 13 -58 15 -393 15 -212 0 -386 1 -386 3 0 2 21 25 47 50 131 132 243
355 269 538 7 51 7 156 0 191 -3 15 -8 43 -11 62 -17 103 -110 254 -195 317
-49 36 -117 70 -170 84 -62 17 -194 14 -260 -5 -105 -31 -96 -32 -98 19 l-2
46 57 1 c32 0 65 2 73 4 100 20 162 53 218 114 38 41 98 158 88 169 -16 16
-171 10 -231 -8 -71 -23 -152 -89 -192 -157 l-26 -45 -31 88 c-36 101 -55 133
-76 126z m-161 -645 c-150 -134 -169 -379 -49 -643 16 -37 29 -69 26 -71 -6
-6 -80 59 -123 110 -132 156 -172 361 -95 487 54 87 150 148 237 149 l40 1
-36 -33z"/>
<path d="M580 410 l0 -58 1030 0 c608 0 1030 4 1031 9 1 5 1 20 1 34 0 14 0
36 -1 50 l-1 24 -1030 0 -1030 0 0 -59z"/>
</g>
</svg>
